<svg width="23" height="19" viewBox="0 0 23 19" fill="none" xmlns="http://www.w3.org/2000/svg">
<path d="M21.5342 3.92381C21.2069 3.16609 20.7351 2.47945 20.145 1.90233C19.5545 1.32349 18.8583 0.86349 18.0942 0.54735C17.3019 0.218231 16.4522 0.0497698 15.5942 0.0517445C14.3906 0.0517445 13.2163 0.381334 12.1958 1.00389C11.9517 1.15282 11.7197 1.31639 11.5 1.49462C11.2803 1.31639 11.0483 1.15282 10.8042 1.00389C9.78369 0.381334 8.60937 0.0517445 7.40576 0.0517445C6.53906 0.0517445 5.69922 0.21776 4.90576 0.54735C4.13916 0.864733 3.44824 1.32128 2.85498 1.90233C2.26415 2.4788 1.79218 3.1656 1.46582 3.92381C1.12646 4.71239 0.953125 5.54979 0.953125 6.41161C0.953125 7.2246 1.11914 8.07176 1.44873 8.93358C1.72461 9.65379 2.12012 10.4009 2.62549 11.1553C3.42627 12.3491 4.52734 13.5942 5.89453 14.8564C8.16016 16.9487 10.4038 18.394 10.499 18.4526L11.0776 18.8237C11.334 18.9873 11.6636 18.9873 11.9199 18.8237L12.4985 18.4526C12.5938 18.3916 14.835 16.9487 17.103 14.8564C18.4702 13.5942 19.5713 12.3491 20.3721 11.1553C20.8774 10.4009 21.2754 9.65379 21.5488 8.93358C21.8784 8.07176 22.0444 7.2246 22.0444 6.41161C22.0469 5.54979 21.8735 4.71239 21.5342 3.92381V3.92381ZM11.5 16.8926C11.5 16.8926 2.80859 11.3237 2.80859 6.41161C2.80859 3.92381 4.8667 1.90721 7.40576 1.90721C9.19043 1.90721 10.7383 2.90331 11.5 4.35838C12.2617 2.90331 13.8096 1.90721 15.5942 1.90721C18.1333 1.90721 20.1914 3.92381 20.1914 6.41161C20.1914 11.3237 11.5 16.8926 11.5 16.8926Z" fill="#232627"/>
</svg>
