<svg width="20" height="20" viewBox="0 0 20 20" fill="none" xmlns="http://www.w3.org/2000/svg">
<path d="M5.58268 12.25C5.4299 12.0972 5.35352 11.9028 5.35352 11.6666C5.35352 11.4305 5.4299 11.2361 5.58268 11.0833L9.41602 7.24998C9.49935 7.16665 9.58963 7.10748 9.68685 7.07248C9.78407 7.03804 9.88824 7.02081 9.99935 7.02081C10.1105 7.02081 10.2182 7.04165 10.3227 7.08331C10.4266 7.12498 10.5132 7.18053 10.5827 7.24998L14.416 11.0833C14.5688 11.2361 14.6452 11.4305 14.6452 11.6666C14.6452 11.9028 14.5688 12.0972 14.416 12.25C14.2632 12.4028 14.0688 12.4791 13.8327 12.4791C13.5966 12.4791 13.4021 12.4028 13.2493 12.25L9.99935 8.99998L6.74935 12.25C6.59657 12.4028 6.40213 12.4791 6.16602 12.4791C5.9299 12.4791 5.73546 12.4028 5.58268 12.25V12.25Z" fill="#232627"/>
</svg>
