<svg width="19" height="25" viewBox="0 0 19 25" fill="none" xmlns="http://www.w3.org/2000/svg">
<path d="M0.125 3.125C0.125 2.2962 0.45424 1.50134 1.04029 0.915291C1.62634 0.32924 2.4212 0 3.25 0L15.75 0C16.5788 0 17.3737 0.32924 17.9597 0.915291C18.5458 1.50134 18.875 2.2962 18.875 3.125V24.2188C18.8749 24.3601 18.8365 24.4987 18.7639 24.6199C18.6912 24.7411 18.5871 24.8404 18.4625 24.9071C18.3379 24.9738 18.1976 25.0055 18.0564 24.9987C17.9153 24.992 17.7786 24.947 17.6609 24.8688L9.5 20.4703L1.33906 24.8688C1.22141 24.947 1.08473 24.992 0.94358 24.9987C0.802426 25.0055 0.662083 24.9738 0.537499 24.9071C0.412915 24.8404 0.308756 24.7411 0.236116 24.6199C0.163475 24.4987 0.125073 24.3601 0.125 24.2188V3.125ZM3.25 1.5625C2.8356 1.5625 2.43817 1.72712 2.14515 2.02015C1.85212 2.31317 1.6875 2.7106 1.6875 3.125V22.7594L9.06719 18.8812C9.19541 18.7959 9.34599 18.7504 9.5 18.7504C9.65401 18.7504 9.80459 18.7959 9.93281 18.8812L17.3125 22.7594V3.125C17.3125 2.7106 17.1479 2.31317 16.8549 2.02015C16.5618 1.72712 16.1644 1.5625 15.75 1.5625H3.25Z" fill="#232627"/>
</svg>
