<svg width="19" height="25" viewBox="0 0 19 25" fill="none" xmlns="http://www.w3.org/2000/svg">
<path d="M0.125 3.125V24.2188C0.124901 24.3544 0.160132 24.4878 0.227226 24.6057C0.29432 24.7236 0.390963 24.822 0.507643 24.8912C0.624323 24.9605 0.757017 24.9981 0.892664 25.0005C1.02831 25.0028 1.16223 24.9698 1.28125 24.9047L9.5 20.4203L17.7188 24.9047C17.8378 24.9698 17.9717 25.0028 18.1073 25.0005C18.243 24.9981 18.3757 24.9605 18.4924 24.8912C18.609 24.822 18.7057 24.7236 18.7728 24.6057C18.8399 24.4878 18.8751 24.3544 18.875 24.2188V3.125C18.875 2.2962 18.5458 1.50134 17.9597 0.915291C17.3737 0.32924 16.5788 0 15.75 0L3.25 0C2.4212 0 1.62634 0.32924 1.04029 0.915291C0.45424 1.50134 0.125 2.2962 0.125 3.125V3.125Z" fill="#232627"/>
</svg>
