<svg width="25" height="25" viewBox="0 0 25 25" fill="none" xmlns="http://www.w3.org/2000/svg">
<circle r="12.5" transform="matrix(-1 0 0 1 12.5 12.5)" fill="white"/>
<path d="M14.9565 19.6138C15.1999 19.6143 15.4358 19.5295 15.6232 19.3742C15.7286 19.2868 15.8158 19.1794 15.8797 19.0582C15.9437 18.937 15.983 18.8044 15.9956 18.6679C16.0082 18.5315 15.9937 18.3939 15.953 18.2631C15.9124 18.1322 15.8463 18.0107 15.7586 17.9055L11.0919 12.3221L15.5919 6.72837C15.6784 6.62182 15.7431 6.49922 15.7821 6.36762C15.821 6.23602 15.8336 6.098 15.8191 5.96152C15.8046 5.82503 15.7632 5.69276 15.6974 5.5723C15.6316 5.45185 15.5427 5.34558 15.4357 5.25962C15.3279 5.16479 15.2017 5.09326 15.0649 5.04953C14.9282 5.00579 14.7839 4.99078 14.6411 5.00545C14.4983 5.02013 14.3601 5.06416 14.2351 5.13478C14.1101 5.20541 14.0011 5.30111 13.9148 5.41587L8.88358 11.6659C8.73037 11.8523 8.64662 12.0861 8.64662 12.3273C8.64662 12.5686 8.73037 12.8024 8.88358 12.9888L14.0919 19.2388C14.1964 19.3648 14.3292 19.4645 14.4794 19.5297C14.6296 19.5948 14.7931 19.6236 14.9565 19.6138Z" fill="#737373"/>
</svg>
