<svg width="25" height="25" viewBox="0 0 25 25" fill="none" xmlns="http://www.w3.org/2000/svg">
<circle cx="12.5" cy="12.5" r="12.5" fill="white"/>
<path d="M10.0435 19.6138C9.80011 19.6143 9.56424 19.5295 9.37683 19.3742C9.27136 19.2868 9.18417 19.1794 9.12026 19.0582C9.05635 18.937 9.01698 18.8044 9.0044 18.6679C8.99182 18.5315 9.00628 18.3939 9.04695 18.2631C9.08762 18.1322 9.15371 18.0107 9.24142 17.9055L13.9081 12.3221L9.40808 6.72837C9.32156 6.62182 9.25694 6.49922 9.21795 6.36762C9.17896 6.23602 9.16636 6.098 9.18088 5.96152C9.1954 5.82503 9.23675 5.69276 9.30256 5.5723C9.36836 5.45185 9.45733 5.34558 9.56433 5.25962C9.67211 5.16479 9.79832 5.09326 9.93506 5.04953C10.0718 5.00579 10.2161 4.99078 10.3589 5.00545C10.5017 5.02013 10.6399 5.06416 10.7649 5.13478C10.8899 5.20541 10.9989 5.30111 11.0852 5.41587L16.1164 11.6659C16.2696 11.8523 16.3534 12.0861 16.3534 12.3273C16.3534 12.5686 16.2696 12.8024 16.1164 12.9888L10.9081 19.2388C10.8036 19.3648 10.6708 19.4645 10.5206 19.5297C10.3704 19.5948 10.2069 19.6236 10.0435 19.6138Z" fill="#737373"/>
</svg>
