<svg width="26" height="26" viewBox="0 0 26 26" fill="none" xmlns="http://www.w3.org/2000/svg">
<path d="M15.936 17.2033L11.7326 13L15.936 8.79668C16.0363 8.69638 16.1158 8.57731 16.1701 8.44626C16.2244 8.31522 16.2523 8.17477 16.2523 8.03293C16.2523 7.89108 16.2244 7.75063 16.1701 7.61959C16.1158 7.48854 16.0363 7.36947 15.936 7.26918C15.8357 7.16888 15.7166 7.08932 15.5855 7.03504C15.4545 6.98076 15.314 6.95282 15.1722 6.95282C15.0304 6.95282 14.8899 6.98076 14.7589 7.03504C14.6278 7.08932 14.5088 7.16888 14.4085 7.26918L9.43596 12.2417C9.33553 12.3419 9.25585 12.4609 9.20149 12.592C9.14712 12.7231 9.11914 12.8635 9.11914 13.0054C9.11914 13.1473 9.14712 13.2878 9.20149 13.4189C9.25585 13.5499 9.33553 13.669 9.43596 13.7692L14.4085 18.7417C14.831 19.1642 15.5135 19.1642 15.936 18.7417C16.3476 18.3192 16.3585 17.6258 15.936 17.2033Z" fill="#232627"/>
</svg>
