<svg width="26" height="26" viewBox="0 0 26 26" fill="none" xmlns="http://www.w3.org/2000/svg">
<path d="M10.0644 17.2033L14.2677 13L10.0644 8.79668C9.96411 8.69638 9.88455 8.57731 9.83027 8.44626C9.77599 8.31522 9.74805 8.17477 9.74805 8.03293C9.74805 7.89108 9.77599 7.75063 9.83027 7.61959C9.88455 7.48854 9.96411 7.36947 10.0644 7.26918C10.1647 7.16888 10.2838 7.08932 10.4148 7.03504C10.5459 6.98076 10.6863 6.95282 10.8282 6.95282C10.97 6.95282 11.1104 6.98076 11.2415 7.03504C11.3725 7.08932 11.4916 7.16888 11.5919 7.26918L16.5644 12.2417C16.9869 12.6642 16.9869 13.3467 16.5644 13.7692L11.5919 18.7417C11.4917 18.8421 11.3726 18.9218 11.2416 18.9761C11.1105 19.0305 10.97 19.0585 10.8282 19.0585C10.6863 19.0585 10.5458 19.0305 10.4147 18.9761C10.2837 18.9218 10.1646 18.8421 10.0644 18.7417C9.65274 18.3192 9.6419 17.6258 10.0644 17.2033Z" fill="#232627"/>
</svg>
