<svg width="115" height="26" viewBox="0 0 115 26" fill="none" xmlns="http://www.w3.org/2000/svg">
<path d="M14.3231 16.336C14.1951 16.672 14.0831 17.016 13.9871 17.368C13.8911 17.704 13.8271 18.04 13.7951 18.376C12.4991 19.032 10.8671 19.36 8.89913 19.36C7.50713 19.36 6.25913 19.168 5.15513 18.784C4.06713 18.384 3.13913 17.832 2.37112 17.128C1.61913 16.408 1.04313 15.56 0.643125 14.584C0.243125 13.608 0.043125 12.552 0.043125 11.416C0.043125 9.752 0.299125 8.344 0.811125 7.192C1.33913 6.024 2.03513 5.08 2.89913 4.36C3.77913 3.624 4.79513 3.088 5.94713 2.752C7.09913 2.416 8.30713 2.248 9.57113 2.248C9.98713 2.248 10.4271 2.28 10.8911 2.344C11.3551 2.408 11.8031 2.496 12.2351 2.608C12.6671 2.704 13.0751 2.824 13.4591 2.968C13.8591 3.112 14.1951 3.264 14.4671 3.424C14.3071 3.824 14.1791 4.232 14.0831 4.648C14.0031 5.048 13.9471 5.456 13.9151 5.872H13.5791C12.9711 5.104 12.3471 4.56 11.7071 4.24C11.0671 3.904 10.3151 3.736 9.45113 3.736C8.81113 3.736 8.16313 3.88 7.50713 4.168C6.86713 4.456 6.28313 4.896 5.75513 5.488C5.22713 6.08 4.79513 6.84 4.45913 7.768C4.13913 8.68 3.97913 9.776 3.97913 11.056C3.97913 12.288 4.14713 13.344 4.48313 14.224C4.81913 15.088 5.25113 15.8 5.77913 16.36C6.32313 16.904 6.93113 17.304 7.60313 17.56C8.29113 17.816 8.97913 17.944 9.66713 17.944C10.0511 17.944 10.4431 17.904 10.8431 17.824C11.2431 17.728 11.6351 17.608 12.0191 17.464C12.4031 17.304 12.7631 17.112 13.0991 16.888C13.4511 16.664 13.7551 16.416 14.0111 16.144L14.3231 16.336ZM16.6749 9.256C16.6749 7.688 16.6589 6.248 16.6269 4.936C16.5949 3.624 16.5469 2.296 16.4829 0.951999C16.6909 0.983999 16.9549 1.016 17.2749 1.048C17.5949 1.064 17.9309 1.072 18.2829 1.072C18.6349 1.072 18.9709 1.064 19.2909 1.048C19.6109 1.016 19.8749 0.983999 20.0829 0.951999C20.0189 2.296 19.9709 3.624 19.9389 4.936C19.9069 6.248 19.8909 7.688 19.8909 9.256L19.9389 9.304C20.3549 8.632 20.8589 8.112 21.4509 7.744C22.0589 7.376 22.7469 7.192 23.5149 7.192C24.7149 7.192 25.6349 7.544 26.2749 8.248C26.9309 8.936 27.2589 10.056 27.2589 11.608C27.2589 12.424 27.2429 13.144 27.2109 13.768C27.1789 14.392 27.1629 15.016 27.1629 15.64C27.1629 16.152 27.1709 16.712 27.1869 17.32C27.2189 17.912 27.2509 18.488 27.2829 19.048C27.0749 19.016 26.8109 19 26.4909 19C26.1709 19 25.8349 19 25.4829 19C25.1309 19 24.7949 19 24.4749 19C24.1549 19 23.8909 19.016 23.6829 19.048C23.7949 18.216 23.8669 17.24 23.8989 16.12C23.9309 14.984 23.9469 13.688 23.9469 12.232C23.9469 11.224 23.7709 10.488 23.4189 10.024C23.0829 9.544 22.6029 9.304 21.9789 9.304C21.2589 9.304 20.7309 9.616 20.3949 10.24C20.0589 10.864 19.8909 11.728 19.8909 12.832V13.792C19.8909 14.016 19.8909 14.344 19.8909 14.776C19.9069 15.192 19.9229 15.656 19.9389 16.168C19.9549 16.664 19.9709 17.176 19.9869 17.704C20.0189 18.216 20.0509 18.664 20.0829 19.048C19.8749 19.016 19.6109 19 19.2909 19C18.9709 19 18.6349 19 18.2829 19C17.9309 19 17.5949 19 17.2749 19C16.9549 19 16.6909 19.016 16.4829 19.048C16.5469 17.752 16.5949 16.448 16.6269 15.136C16.6589 13.824 16.6749 12.384 16.6749 10.816V9.256ZM32.8909 13.312C32.8909 13.952 32.9549 14.552 33.0829 15.112C33.2109 15.672 33.4029 16.16 33.6589 16.576C33.9309 16.976 34.2669 17.296 34.6669 17.536C35.0829 17.76 35.5629 17.872 36.1069 17.872C37.2109 17.872 38.1949 17.512 39.0589 16.792L39.3469 17.008L38.8189 18.352C38.4189 18.656 37.9389 18.896 37.3789 19.072C36.8189 19.264 36.0829 19.36 35.1709 19.36C34.3869 19.36 33.6429 19.248 32.9389 19.024C32.2349 18.816 31.6109 18.464 31.0669 17.968C30.5389 17.472 30.1149 16.848 29.7949 16.096C29.4909 15.328 29.3389 14.416 29.3389 13.36C29.3389 12.32 29.4749 11.416 29.7469 10.648C30.0349 9.88 30.4269 9.24 30.9229 8.728C31.4189 8.216 32.0029 7.832 32.6749 7.576C33.3629 7.32 34.1069 7.192 34.9069 7.192C36.4909 7.192 37.6989 7.656 38.5309 8.584C39.3789 9.512 39.8029 10.824 39.8029 12.52V13.024C39.8029 13.168 39.7949 13.264 39.7789 13.312H32.8909ZM36.5869 12.232C36.5549 11.032 36.4029 10.072 36.1309 9.352C35.8749 8.632 35.4349 8.272 34.8109 8.272C34.4589 8.272 34.1629 8.392 33.9229 8.632C33.6829 8.872 33.4909 9.184 33.3469 9.568C33.2029 9.936 33.0909 10.36 33.0109 10.84C32.9469 11.304 32.9069 11.768 32.8909 12.232H36.5869ZM45.2749 10.48C45.6909 9.376 46.1949 8.568 46.7869 8.056C47.3789 7.528 48.0829 7.264 48.8989 7.264C48.9789 7.264 49.0429 7.272 49.0909 7.288C49.1549 7.288 49.2189 7.288 49.2829 7.288C49.2349 7.528 49.1949 7.784 49.1629 8.056C49.1469 8.328 49.1389 8.648 49.1389 9.016V9.784C49.1389 9.912 49.1389 10.048 49.1389 10.192C49.1389 10.336 49.1469 10.472 49.1629 10.6L48.9469 10.792C48.7869 10.696 48.6029 10.616 48.3949 10.552C48.2029 10.488 47.9789 10.456 47.7229 10.456C47.0029 10.456 46.4349 10.696 46.0189 11.176C45.6029 11.64 45.3949 12.192 45.3949 12.832V13.792C45.3949 14.768 45.4029 15.688 45.4189 16.552C45.4509 17.416 45.5069 18.248 45.5869 19.048C45.3789 19.016 45.1149 19 44.7949 19C44.4909 19 44.1549 19 43.7869 19C43.4189 19 43.0829 19 42.7789 19C42.4749 19 42.2109 19.016 41.9869 19.048C42.0669 18.248 42.1149 17.416 42.1309 16.552C42.1629 15.688 42.1789 14.768 42.1789 13.792V12.832C42.1789 11.856 42.1629 10.944 42.1309 10.096C42.1149 9.232 42.0669 8.368 41.9869 7.504C42.2589 7.536 42.5309 7.568 42.8029 7.6C43.0909 7.616 43.3709 7.624 43.6429 7.624C43.9149 7.624 44.1869 7.616 44.4589 7.6C44.7469 7.568 45.0269 7.536 45.2989 7.504L45.2269 10.432L45.2749 10.48ZM54.603 10.48C55.019 9.376 55.523 8.568 56.115 8.056C56.707 7.528 57.411 7.264 58.227 7.264C58.307 7.264 58.371 7.272 58.419 7.288C58.483 7.288 58.547 7.288 58.611 7.288C58.563 7.528 58.523 7.784 58.491 8.056C58.475 8.328 58.467 8.648 58.467 9.016V9.784C58.467 9.912 58.467 10.048 58.467 10.192C58.467 10.336 58.475 10.472 58.491 10.6L58.275 10.792C58.115 10.696 57.931 10.616 57.723 10.552C57.531 10.488 57.307 10.456 57.051 10.456C56.331 10.456 55.763 10.696 55.347 11.176C54.931 11.64 54.723 12.192 54.723 12.832V13.792C54.723 14.768 54.731 15.688 54.747 16.552C54.779 17.416 54.835 18.248 54.915 19.048C54.707 19.016 54.443 19 54.123 19C53.819 19 53.483 19 53.115 19C52.747 19 52.411 19 52.107 19C51.803 19 51.539 19.016 51.315 19.048C51.395 18.248 51.443 17.416 51.459 16.552C51.491 15.688 51.507 14.768 51.507 13.792V12.832C51.507 11.856 51.491 10.944 51.459 10.096C51.443 9.232 51.395 8.368 51.315 7.504C51.587 7.536 51.859 7.568 52.131 7.6C52.419 7.616 52.699 7.624 52.971 7.624C53.243 7.624 53.515 7.616 53.787 7.6C54.075 7.568 54.355 7.536 54.627 7.504L54.555 10.432L54.603 10.48ZM66.0911 15.04C66.3791 14.304 66.6431 13.624 66.8831 13C67.1231 12.36 67.3471 11.744 67.5551 11.152C67.7791 10.56 67.9871 9.968 68.1791 9.376C68.3871 8.784 68.5951 8.16 68.8031 7.504C68.9791 7.536 69.1391 7.568 69.2831 7.6C69.4431 7.616 69.6031 7.624 69.7631 7.624C69.9231 7.624 70.0831 7.616 70.2431 7.6C70.4031 7.568 70.5791 7.536 70.7711 7.504C70.6911 7.712 70.4991 8.16 70.1951 8.848C69.9071 9.52 69.5471 10.36 69.1151 11.368C68.6991 12.36 68.2351 13.464 67.7231 14.68C67.2111 15.896 66.6911 17.128 66.1631 18.376C65.6511 19.608 65.1471 20.832 64.6511 22.048C64.1711 23.264 63.7471 24.368 63.3791 25.36C63.2031 25.328 63.0351 25.296 62.8751 25.264C62.7151 25.248 62.5471 25.24 62.3711 25.24C62.1951 25.24 62.0271 25.248 61.8671 25.264C61.7071 25.296 61.5391 25.328 61.3631 25.36C61.8911 24.304 62.4111 23.256 62.9231 22.216C63.4351 21.192 63.9311 20.152 64.4111 19.096C64.0271 18.184 63.5951 17.152 63.1151 16C62.6511 14.848 62.1871 13.72 61.7231 12.616C61.2751 11.512 60.8591 10.504 60.4751 9.592C60.1071 8.68 59.8271 7.984 59.6351 7.504C59.9391 7.536 60.2351 7.568 60.5231 7.6C60.8271 7.616 61.1311 7.624 61.4351 7.624C61.7391 7.624 62.0351 7.616 62.3231 7.6C62.6111 7.568 62.9071 7.536 63.2111 7.504C63.6751 8.768 64.1391 10.024 64.6031 11.272C65.0831 12.52 65.5791 13.776 66.0911 15.04ZM80.2751 7.168C80.2751 6.56 80.2031 6.048 80.0591 5.632C79.9311 5.216 79.7471 4.888 79.5071 4.648C79.2831 4.392 79.0111 4.208 78.6911 4.096C78.3871 3.984 78.0671 3.928 77.7311 3.928H77.1791C77.0991 3.928 77.0191 3.928 76.9391 3.928C76.8591 3.928 76.7871 3.936 76.7231 3.952C76.7071 5.104 76.6911 6.24 76.6751 7.36C76.6751 8.464 76.6751 9.576 76.6751 10.696C77.0751 10.696 77.4831 10.656 77.8991 10.576C78.3311 10.496 78.7231 10.336 79.0751 10.096C79.4271 9.84 79.7151 9.48 79.9391 9.016C80.1631 8.552 80.2751 7.936 80.2751 7.168ZM73.1231 9.208C73.1231 7.88 73.1071 6.704 73.0751 5.68C73.0431 4.64 72.9951 3.6 72.9311 2.56C73.2031 2.592 73.4991 2.624 73.8191 2.656C74.1391 2.672 74.4991 2.68 74.8991 2.68C75.4591 2.68 76.0351 2.664 76.6271 2.632C77.2351 2.584 77.8271 2.56 78.4031 2.56C79.5391 2.56 80.4271 2.648 81.0671 2.824C81.7071 2.984 82.2111 3.224 82.5791 3.544C83.0911 3.96 83.4671 4.424 83.7071 4.936C83.9471 5.448 84.0671 6.064 84.0671 6.784C84.0671 7.696 83.9151 8.48 83.6111 9.136C83.3071 9.792 82.8751 10.328 82.3151 10.744C81.7711 11.144 81.1231 11.44 80.3711 11.632C79.6191 11.824 78.7951 11.92 77.8991 11.92H76.6751C76.6751 13.12 76.6831 14.32 76.6991 15.52C76.7311 16.704 76.7871 17.88 76.8671 19.048C76.5951 19.016 76.2991 19 75.9791 19C75.6591 19 75.2991 19 74.8991 19C74.4991 19 74.1391 19 73.8191 19C73.4991 19 73.2031 19.016 72.9311 19.048C72.9951 18.056 73.0431 17.048 73.0751 16.024C73.1071 14.984 73.1231 13.8 73.1231 12.472V9.208ZM85.9791 2.968C85.9791 2.44 86.1631 1.992 86.5311 1.624C86.8991 1.256 87.3471 1.072 87.8751 1.072C88.4031 1.072 88.8511 1.256 89.2191 1.624C89.5871 1.992 89.7711 2.44 89.7711 2.968C89.7711 3.496 89.5871 3.944 89.2191 4.312C88.8511 4.68 88.4031 4.864 87.8751 4.864C87.3471 4.864 86.8991 4.68 86.5311 4.312C86.1631 3.944 85.9791 3.496 85.9791 2.968ZM86.2671 12.832C86.2671 11.856 86.2511 10.944 86.2191 10.096C86.2031 9.232 86.1551 8.368 86.0751 7.504C86.2991 7.536 86.5631 7.568 86.8671 7.6C87.1711 7.616 87.5071 7.624 87.8751 7.624C88.6271 7.624 89.2271 7.584 89.6751 7.504C89.5951 8.368 89.5391 9.232 89.5071 10.096C89.4911 10.944 89.4831 11.856 89.4831 12.832V13.792C89.4831 14.768 89.4911 15.688 89.5071 16.552C89.5391 17.416 89.5951 18.248 89.6751 19.048C89.4671 19.016 89.2031 19 88.8831 19C88.5791 19 88.2431 19 87.8751 19C87.5071 19 87.1711 19 86.8671 19C86.5631 19 86.2991 19.016 86.0751 19.048C86.1551 18.248 86.2031 17.416 86.2191 16.552C86.2511 15.688 86.2671 14.768 86.2671 13.792V12.832ZM101.227 10.816C101.099 10.096 100.843 9.52 100.459 9.088C100.091 8.64 99.5388 8.416 98.8028 8.416C97.8428 8.416 97.1228 8.856 96.6428 9.736C96.1628 10.6 95.9228 11.808 95.9228 13.36C95.9228 14.816 96.2268 15.936 96.8348 16.72C97.4428 17.488 98.3308 17.872 99.4988 17.872C99.9948 17.872 100.475 17.76 100.939 17.536C101.403 17.296 101.747 17.032 101.971 16.744L102.259 16.984C102.147 17.208 102.051 17.44 101.971 17.68C101.891 17.92 101.811 18.16 101.731 18.4C101.379 18.672 100.931 18.896 100.387 19.072C99.8588 19.264 99.2268 19.36 98.4908 19.36C97.3228 19.36 96.3388 19.192 95.5388 18.856C94.7388 18.52 94.0908 18.064 93.5948 17.488C93.1148 16.912 92.7708 16.264 92.5628 15.544C92.3548 14.808 92.2508 14.072 92.2508 13.336C92.2508 12.456 92.3948 11.64 92.6828 10.888C92.9868 10.136 93.4108 9.488 93.9548 8.944C94.5148 8.4 95.1868 7.976 95.9708 7.672C96.7548 7.352 97.6268 7.192 98.5868 7.192C99.4988 7.192 100.267 7.296 100.891 7.504C101.531 7.712 102.139 7.984 102.715 8.32C102.523 8.64 102.339 9.032 102.163 9.496C102.003 9.96 101.883 10.4 101.803 10.816H101.227ZM104.261 9.256C104.261 7.688 104.245 6.248 104.213 4.936C104.181 3.624 104.133 2.296 104.069 0.951999C104.277 0.983999 104.541 1.016 104.861 1.048C105.181 1.064 105.517 1.072 105.869 1.072C106.221 1.072 106.557 1.064 106.877 1.048C107.197 1.016 107.461 0.983999 107.669 0.951999C107.637 1.624 107.605 2.304 107.573 2.992C107.557 3.68 107.541 4.456 107.525 5.32C107.509 6.184 107.493 7.176 107.477 8.296C107.477 9.4 107.477 10.72 107.477 12.256C107.477 12.48 107.477 12.624 107.477 12.688C107.493 12.752 107.533 12.784 107.597 12.784C107.661 12.784 107.813 12.664 108.053 12.424C108.309 12.168 108.629 11.808 109.013 11.344C109.413 10.88 109.869 10.328 110.381 9.688C110.909 9.032 111.485 8.304 112.109 7.504C112.301 7.536 112.485 7.568 112.661 7.6C112.853 7.616 113.045 7.624 113.237 7.624C113.413 7.624 113.605 7.616 113.813 7.6C114.021 7.568 114.277 7.536 114.581 7.504C114.373 7.744 114.061 8.072 113.645 8.488C113.245 8.904 112.829 9.336 112.397 9.784C111.965 10.216 111.557 10.632 111.173 11.032C110.789 11.432 110.509 11.728 110.333 11.92C110.397 12.016 110.533 12.24 110.741 12.592C110.965 12.944 111.229 13.368 111.533 13.864C111.837 14.344 112.157 14.864 112.493 15.424C112.829 15.968 113.141 16.496 113.429 17.008C113.733 17.504 113.997 17.944 114.221 18.328C114.445 18.696 114.589 18.936 114.653 19.048C114.317 19.016 113.997 19 113.693 19C113.389 19 113.077 19 112.757 19C112.437 19 112.125 19 111.821 19C111.533 19 111.237 19.016 110.933 19.048C110.853 18.968 110.717 18.768 110.525 18.448C110.349 18.128 110.141 17.768 109.901 17.368C109.677 16.952 109.437 16.52 109.181 16.072C108.941 15.624 108.709 15.216 108.485 14.848C108.261 14.464 108.061 14.152 107.885 13.912C107.709 13.672 107.589 13.552 107.525 13.552C107.461 13.552 107.413 13.6 107.381 13.696C107.365 13.792 107.357 14.088 107.357 14.584V15.928C107.357 16.136 107.357 16.392 107.357 16.696C107.373 17 107.381 17.312 107.381 17.632C107.397 17.936 107.413 18.224 107.429 18.496C107.461 18.768 107.493 18.952 107.525 19.048C107.237 19.016 106.949 19 106.661 19C106.373 19 106.085 19 105.797 19C105.509 19 105.221 19 104.933 19C104.645 19 104.357 19.016 104.069 19.048C104.133 17.752 104.181 16.448 104.213 15.136C104.245 13.824 104.261 12.384 104.261 10.816V9.256Z" fill="#BFBFBF"/>
</svg>
