<svg width="103" height="20" viewBox="0 0 103 20" fill="none" xmlns="http://www.w3.org/2000/svg">
<path d="M14.3231 16.336C14.1951 16.672 14.0831 17.016 13.9871 17.368C13.8911 17.704 13.8271 18.04 13.7951 18.376C12.4991 19.032 10.8671 19.36 8.89913 19.36C7.50713 19.36 6.25913 19.168 5.15513 18.784C4.06713 18.384 3.13913 17.832 2.37112 17.128C1.61913 16.408 1.04313 15.56 0.643125 14.584C0.243125 13.608 0.043125 12.552 0.043125 11.416C0.043125 9.752 0.299125 8.344 0.811125 7.192C1.33913 6.024 2.03513 5.08 2.89913 4.36C3.77913 3.624 4.79513 3.088 5.94713 2.752C7.09913 2.416 8.30713 2.248 9.57113 2.248C9.98713 2.248 10.4271 2.28 10.8911 2.344C11.3551 2.408 11.8031 2.496 12.2351 2.608C12.6671 2.704 13.0751 2.824 13.4591 2.968C13.8591 3.112 14.1951 3.264 14.4671 3.424C14.3071 3.824 14.1791 4.232 14.0831 4.648C14.0031 5.048 13.9471 5.456 13.9151 5.872H13.5791C12.9711 5.104 12.3471 4.56 11.7071 4.24C11.0671 3.904 10.3151 3.736 9.45113 3.736C8.81113 3.736 8.16313 3.88 7.50713 4.168C6.86713 4.456 6.28313 4.896 5.75513 5.488C5.22713 6.08 4.79513 6.84 4.45913 7.768C4.13913 8.68 3.97913 9.776 3.97913 11.056C3.97913 12.288 4.14713 13.344 4.48313 14.224C4.81913 15.088 5.25113 15.8 5.77913 16.36C6.32313 16.904 6.93113 17.304 7.60313 17.56C8.29113 17.816 8.97913 17.944 9.66713 17.944C10.0511 17.944 10.4431 17.904 10.8431 17.824C11.2431 17.728 11.6351 17.608 12.0191 17.464C12.4031 17.304 12.7631 17.112 13.0991 16.888C13.4511 16.664 13.7551 16.416 14.0111 16.144L14.3231 16.336ZM68.2751 7.168C68.2751 6.56 68.2031 6.048 68.0591 5.632C67.9311 5.216 67.7471 4.888 67.5071 4.648C67.2831 4.392 67.0111 4.208 66.6911 4.096C66.3871 3.984 66.0671 3.928 65.7311 3.928H65.1791C65.0991 3.928 65.0191 3.928 64.9391 3.928C64.8591 3.928 64.7871 3.936 64.7231 3.952C64.7071 5.104 64.6911 6.24 64.6751 7.36C64.6751 8.464 64.6751 9.576 64.6751 10.696C65.0751 10.696 65.4831 10.656 65.8991 10.576C66.3311 10.496 66.7231 10.336 67.0751 10.096C67.4271 9.84 67.7151 9.48 67.9391 9.016C68.1631 8.552 68.2751 7.936 68.2751 7.168ZM61.1231 9.208C61.1231 7.88 61.1071 6.704 61.0751 5.68C61.0431 4.64 60.9951 3.6 60.9311 2.56C61.2031 2.592 61.4991 2.624 61.8191 2.656C62.1391 2.672 62.4991 2.68 62.8991 2.68C63.4591 2.68 64.0351 2.664 64.6271 2.632C65.2351 2.584 65.8271 2.56 66.4031 2.56C67.5391 2.56 68.4271 2.648 69.0671 2.824C69.7071 2.984 70.2111 3.224 70.5791 3.544C71.0911 3.96 71.4671 4.424 71.7071 4.936C71.9471 5.448 72.0671 6.064 72.0671 6.784C72.0671 7.696 71.9151 8.48 71.6111 9.136C71.3071 9.792 70.8751 10.328 70.3151 10.744C69.7711 11.144 69.1231 11.44 68.3711 11.632C67.6191 11.824 66.7951 11.92 65.8991 11.92H64.6751C64.6751 13.12 64.6831 14.32 64.6991 15.52C64.7311 16.704 64.7871 17.88 64.8671 19.048C64.5951 19.016 64.2991 19 63.9791 19C63.6591 19 63.2991 19 62.8991 19C62.4991 19 62.1391 19 61.8191 19C61.4991 19 61.2031 19.016 60.9311 19.048C60.9951 18.056 61.0431 17.048 61.0751 16.024C61.1071 14.984 61.1231 13.8 61.1231 12.472V9.208Z" fill="#6741FF"/>
<path d="M16.6749 9.256C16.6749 7.688 16.6589 6.248 16.6269 4.936C16.5949 3.624 16.5469 2.296 16.4829 0.951999C16.6909 0.983999 16.9549 1.016 17.2749 1.048C17.5949 1.064 17.9309 1.072 18.2829 1.072C18.6349 1.072 18.9709 1.064 19.2909 1.048C19.6109 1.016 19.8749 0.983999 20.0829 0.951999C20.0189 2.296 19.9709 3.624 19.9389 4.936C19.9069 6.248 19.8909 7.688 19.8909 9.256L19.9389 9.304C20.3549 8.632 20.8589 8.112 21.4509 7.744C22.0589 7.376 22.7469 7.192 23.5149 7.192C24.7149 7.192 25.6349 7.544 26.2749 8.248C26.9309 8.936 27.2589 10.056 27.2589 11.608C27.2589 12.424 27.2429 13.144 27.2109 13.768C27.1789 14.392 27.1629 15.016 27.1629 15.64C27.1629 16.152 27.1709 16.712 27.1869 17.32C27.2189 17.912 27.2509 18.488 27.2829 19.048C27.0749 19.016 26.8109 19 26.4909 19C26.1709 19 25.8349 19 25.4829 19C25.1309 19 24.7949 19 24.4749 19C24.1549 19 23.8909 19.016 23.6829 19.048C23.7949 18.216 23.8669 17.24 23.8989 16.12C23.9309 14.984 23.9469 13.688 23.9469 12.232C23.9469 11.224 23.7709 10.488 23.4189 10.024C23.0829 9.544 22.6029 9.304 21.9789 9.304C21.2589 9.304 20.7309 9.616 20.3949 10.24C20.0589 10.864 19.8909 11.728 19.8909 12.832V13.792C19.8909 14.016 19.8909 14.344 19.8909 14.776C19.9069 15.192 19.9229 15.656 19.9389 16.168C19.9549 16.664 19.9709 17.176 19.9869 17.704C20.0189 18.216 20.0509 18.664 20.0829 19.048C19.8749 19.016 19.6109 19 19.2909 19C18.9709 19 18.6349 19 18.2829 19C17.9309 19 17.5949 19 17.2749 19C16.9549 19 16.6909 19.016 16.4829 19.048C16.5469 17.752 16.5949 16.448 16.6269 15.136C16.6589 13.824 16.6749 12.384 16.6749 10.816V9.256ZM32.8909 13.312C32.8909 13.952 32.9549 14.552 33.0829 15.112C33.2109 15.672 33.4029 16.16 33.6589 16.576C33.9309 16.976 34.2669 17.296 34.6669 17.536C35.0829 17.76 35.5629 17.872 36.1069 17.872C37.2109 17.872 38.1949 17.512 39.0589 16.792L39.3469 17.008L38.8189 18.352C38.4189 18.656 37.9389 18.896 37.3789 19.072C36.8189 19.264 36.0829 19.36 35.1709 19.36C34.3869 19.36 33.6429 19.248 32.9389 19.024C32.2349 18.816 31.6109 18.464 31.0669 17.968C30.5389 17.472 30.1149 16.848 29.7949 16.096C29.4909 15.328 29.3389 14.416 29.3389 13.36C29.3389 12.32 29.4749 11.416 29.7469 10.648C30.0349 9.88 30.4269 9.24 30.9229 8.728C31.4189 8.216 32.0029 7.832 32.6749 7.576C33.3629 7.32 34.1069 7.192 34.9069 7.192C36.4909 7.192 37.6989 7.656 38.5309 8.584C39.3789 9.512 39.8029 10.824 39.8029 12.52V13.024C39.8029 13.168 39.7949 13.264 39.7789 13.312H32.8909ZM36.5869 12.232C36.5549 11.032 36.4029 10.072 36.1309 9.352C35.8749 8.632 35.4349 8.272 34.8109 8.272C34.4589 8.272 34.1629 8.392 33.9229 8.632C33.6829 8.872 33.4909 9.184 33.3469 9.568C33.2029 9.936 33.0909 10.36 33.0109 10.84C32.9469 11.304 32.9069 11.768 32.8909 12.232H36.5869ZM45.2749 10.48C45.6909 9.376 46.1949 8.568 46.7869 8.056C47.3789 7.528 48.0829 7.264 48.8989 7.264C48.9789 7.264 49.0429 7.272 49.0909 7.288C49.1549 7.288 49.2189 7.288 49.2829 7.288C49.2349 7.528 49.1949 7.784 49.1629 8.056C49.1469 8.328 49.1389 8.648 49.1389 9.016V9.784C49.1389 9.912 49.1389 10.048 49.1389 10.192C49.1389 10.336 49.1469 10.472 49.1629 10.6L48.9469 10.792C48.7869 10.696 48.6029 10.616 48.3949 10.552C48.2029 10.488 47.9789 10.456 47.7229 10.456C47.0029 10.456 46.4349 10.696 46.0189 11.176C45.6029 11.64 45.3949 12.192 45.3949 12.832V13.792C45.3949 14.768 45.4029 15.688 45.4189 16.552C45.4509 17.416 45.5069 18.248 45.5869 19.048C45.3789 19.016 45.1149 19 44.7949 19C44.4909 19 44.1549 19 43.7869 19C43.4189 19 43.0829 19 42.7789 19C42.4749 19 42.2109 19.016 41.9869 19.048C42.0669 18.248 42.1149 17.416 42.1309 16.552C42.1629 15.688 42.1789 14.768 42.1789 13.792V12.832C42.1789 11.856 42.1629 10.944 42.1309 10.096C42.1149 9.232 42.0669 8.368 41.9869 7.504C42.2589 7.536 42.5309 7.568 42.8029 7.6C43.0909 7.616 43.3709 7.624 43.6429 7.624C43.9149 7.624 44.1869 7.616 44.4589 7.6C44.7469 7.568 45.0269 7.536 45.2989 7.504L45.2269 10.432L45.2749 10.48ZM54.603 10.48C55.019 9.376 55.523 8.568 56.115 8.056C56.707 7.528 57.411 7.264 58.227 7.264C58.307 7.264 58.371 7.272 58.419 7.288C58.483 7.288 58.547 7.288 58.611 7.288C58.563 7.528 58.523 7.784 58.491 8.056C58.475 8.328 58.467 8.648 58.467 9.016V9.784C58.467 9.912 58.467 10.048 58.467 10.192C58.467 10.336 58.475 10.472 58.491 10.6L58.275 10.792C58.115 10.696 57.931 10.616 57.723 10.552C57.531 10.488 57.307 10.456 57.051 10.456C56.331 10.456 55.763 10.696 55.347 11.176C54.931 11.64 54.723 12.192 54.723 12.832V13.792C54.723 14.768 54.731 15.688 54.747 16.552C54.779 17.416 54.835 18.248 54.915 19.048C54.707 19.016 54.443 19 54.123 19C53.819 19 53.483 19 53.115 19C52.747 19 52.411 19 52.107 19C51.803 19 51.539 19.016 51.315 19.048C51.395 18.248 51.443 17.416 51.459 16.552C51.491 15.688 51.507 14.768 51.507 13.792V12.832C51.507 11.856 51.491 10.944 51.459 10.096C51.443 9.232 51.395 8.368 51.315 7.504C51.587 7.536 51.859 7.568 52.131 7.6C52.419 7.616 52.699 7.624 52.971 7.624C53.243 7.624 53.515 7.616 53.787 7.6C54.075 7.568 54.355 7.536 54.627 7.504L54.555 10.432L54.603 10.48ZM73.9791 2.968C73.9791 2.44 74.1631 1.992 74.5311 1.624C74.8991 1.256 75.3471 1.072 75.8751 1.072C76.4031 1.072 76.8511 1.256 77.2191 1.624C77.5871 1.992 77.7711 2.44 77.7711 2.968C77.7711 3.496 77.5871 3.944 77.2191 4.312C76.8511 4.68 76.4031 4.864 75.8751 4.864C75.3471 4.864 74.8991 4.68 74.5311 4.312C74.1631 3.944 73.9791 3.496 73.9791 2.968ZM74.2671 12.832C74.2671 11.856 74.2511 10.944 74.2191 10.096C74.2031 9.232 74.1551 8.368 74.0751 7.504C74.2991 7.536 74.5631 7.568 74.8671 7.6C75.1711 7.616 75.5071 7.624 75.8751 7.624C76.6271 7.624 77.2271 7.584 77.6751 7.504C77.5951 8.368 77.5391 9.232 77.5071 10.096C77.4911 10.944 77.4831 11.856 77.4831 12.832V13.792C77.4831 14.768 77.4911 15.688 77.5071 16.552C77.5391 17.416 77.5951 18.248 77.6751 19.048C77.4671 19.016 77.2031 19 76.8831 19C76.5791 19 76.2431 19 75.8751 19C75.5071 19 75.1711 19 74.8671 19C74.5631 19 74.2991 19.016 74.0751 19.048C74.1551 18.248 74.2031 17.416 74.2191 16.552C74.2511 15.688 74.2671 14.768 74.2671 13.792V12.832ZM89.2268 10.816C89.0988 10.096 88.8428 9.52 88.4588 9.088C88.0908 8.64 87.5388 8.416 86.8028 8.416C85.8428 8.416 85.1228 8.856 84.6428 9.736C84.1628 10.6 83.9228 11.808 83.9228 13.36C83.9228 14.816 84.2268 15.936 84.8348 16.72C85.4428 17.488 86.3308 17.872 87.4988 17.872C87.9948 17.872 88.4748 17.76 88.9388 17.536C89.4028 17.296 89.7468 17.032 89.9708 16.744L90.2588 16.984C90.1468 17.208 90.0508 17.44 89.9708 17.68C89.8908 17.92 89.8108 18.16 89.7308 18.4C89.3788 18.672 88.9308 18.896 88.3868 19.072C87.8588 19.264 87.2268 19.36 86.4908 19.36C85.3228 19.36 84.3388 19.192 83.5388 18.856C82.7388 18.52 82.0908 18.064 81.5948 17.488C81.1148 16.912 80.7708 16.264 80.5628 15.544C80.3548 14.808 80.2508 14.072 80.2508 13.336C80.2508 12.456 80.3948 11.64 80.6828 10.888C80.9868 10.136 81.4108 9.488 81.9548 8.944C82.5148 8.4 83.1868 7.976 83.9708 7.672C84.7548 7.352 85.6268 7.192 86.5868 7.192C87.4988 7.192 88.2668 7.296 88.8908 7.504C89.5308 7.712 90.1388 7.984 90.7148 8.32C90.5228 8.64 90.3388 9.032 90.1628 9.496C90.0028 9.96 89.8828 10.4 89.8028 10.816H89.2268ZM92.2609 9.256C92.2609 7.688 92.2449 6.248 92.2129 4.936C92.1809 3.624 92.1329 2.296 92.0689 0.951999C92.2769 0.983999 92.5409 1.016 92.8609 1.048C93.1809 1.064 93.5169 1.072 93.8689 1.072C94.2209 1.072 94.5569 1.064 94.8769 1.048C95.1969 1.016 95.4609 0.983999 95.6689 0.951999C95.6369 1.624 95.6049 2.304 95.5729 2.992C95.5569 3.68 95.5409 4.456 95.5249 5.32C95.5089 6.184 95.4929 7.176 95.4769 8.296C95.4769 9.4 95.4769 10.72 95.4769 12.256C95.4769 12.48 95.4769 12.624 95.4769 12.688C95.4929 12.752 95.5329 12.784 95.5969 12.784C95.6609 12.784 95.8129 12.664 96.0529 12.424C96.3089 12.168 96.6289 11.808 97.0129 11.344C97.4129 10.88 97.8689 10.328 98.3809 9.688C98.9089 9.032 99.4849 8.304 100.109 7.504C100.301 7.536 100.485 7.568 100.661 7.6C100.853 7.616 101.045 7.624 101.237 7.624C101.413 7.624 101.605 7.616 101.813 7.6C102.021 7.568 102.277 7.536 102.581 7.504C102.373 7.744 102.061 8.072 101.645 8.488C101.245 8.904 100.829 9.336 100.397 9.784C99.9649 10.216 99.5569 10.632 99.1729 11.032C98.7889 11.432 98.5089 11.728 98.3329 11.92C98.3969 12.016 98.5329 12.24 98.7409 12.592C98.9649 12.944 99.2289 13.368 99.5329 13.864C99.8369 14.344 100.157 14.864 100.493 15.424C100.829 15.968 101.141 16.496 101.429 17.008C101.733 17.504 101.997 17.944 102.221 18.328C102.445 18.696 102.589 18.936 102.653 19.048C102.317 19.016 101.997 19 101.693 19C101.389 19 101.077 19 100.757 19C100.437 19 100.125 19 99.8209 19C99.5329 19 99.2369 19.016 98.9329 19.048C98.8529 18.968 98.7169 18.768 98.5249 18.448C98.3489 18.128 98.1409 17.768 97.9009 17.368C97.6769 16.952 97.4369 16.52 97.1809 16.072C96.9409 15.624 96.7089 15.216 96.4849 14.848C96.2609 14.464 96.0609 14.152 95.8849 13.912C95.7089 13.672 95.5889 13.552 95.5249 13.552C95.4609 13.552 95.4129 13.6 95.3809 13.696C95.3649 13.792 95.3569 14.088 95.3569 14.584V15.928C95.3569 16.136 95.3569 16.392 95.3569 16.696C95.3729 17 95.3809 17.312 95.3809 17.632C95.3969 17.936 95.4129 18.224 95.4289 18.496C95.4609 18.768 95.4929 18.952 95.5249 19.048C95.2369 19.016 94.9489 19 94.6609 19C94.3729 19 94.0849 19 93.7969 19C93.5089 19 93.2209 19 92.9329 19C92.6449 19 92.3569 19.016 92.0689 19.048C92.1329 17.752 92.1809 16.448 92.2129 15.136C92.2449 13.824 92.2609 12.384 92.2609 10.816V9.256Z" fill="#232627"/>
</svg>
