<svg width="40" height="40" viewBox="0 0 40 40" fill="none" xmlns="http://www.w3.org/2000/svg">
<path d="M36.5 30.5625L35.2031 25.7344L30.0312 6.4063C29.8592 5.7661 29.4399 5.22045 28.8656 4.88935C28.2913 4.55825 27.609 4.4688 26.9688 4.64067L22.1406 5.93755L21.9844 5.98442C21.7515 5.67891 21.4513 5.43118 21.1072 5.26046C20.763 5.08974 20.3842 5.00063 20 5.00005H15C14.5602 5.00123 14.1286 5.1199 13.75 5.3438C13.3714 5.1199 12.9398 5.00123 12.5 5.00005H7.5C6.83696 5.00005 6.20107 5.26344 5.73223 5.73228C5.26339 6.20112 5 6.837 5 7.50005V32.5C5 33.1631 5.26339 33.799 5.73223 34.2678C6.20107 34.7367 6.83696 35 7.5 35H12.5C12.9398 34.9989 13.3714 34.8802 13.75 34.6563C14.1286 34.8802 14.5602 34.9989 15 35H20C20.663 35 21.2989 34.7367 21.7678 34.2678C22.2366 33.799 22.5 33.1631 22.5 32.5V16.9375L25.5469 28.3125L26.8438 33.1407C26.9853 33.6746 27.2997 34.1466 27.7379 34.483C28.176 34.8194 28.7132 35.0012 29.2656 35C29.4813 34.9963 29.696 34.9701 29.9062 34.9219L34.7344 33.625C35.052 33.5398 35.3495 33.3922 35.6097 33.1911C35.8699 32.9899 36.0875 32.7391 36.25 32.4532C36.4166 32.171 36.5246 31.8582 36.5676 31.5333C36.6105 31.2085 36.5875 30.8783 36.5 30.5625V30.5625ZM24.4062 14.3907L29.2344 13.0938L32.4688 25.1719L27.6406 26.4688L24.4062 14.3907ZM27.6094 7.06255L28.5938 10.6719L23.7656 11.9688L22.7813 8.35942L27.6094 7.06255ZM20 7.50005V26.25H15V7.50005H20ZM12.5 7.50005V11.25H7.5V7.50005H12.5ZM7.5 32.5V13.75H12.5V32.5H7.5ZM20 32.5H15V28.75H20V32.5ZM34.0937 31.2032L29.2656 32.5L28.2812 28.875L33.125 27.5782L34.0937 31.2032V31.2032Z" fill="#6741FF"/>
</svg>
