<svg width="25" height="25" viewBox="0 0 25 25" fill="none" xmlns="http://www.w3.org/2000/svg">
<path d="M12.5007 2.08337C11.1328 2.08337 9.77824 2.35281 8.51443 2.8763C7.25062 3.39978 6.1023 4.16707 5.13502 5.13434C3.18152 7.08785 2.08405 9.73737 2.08405 12.5C2.07494 14.9054 2.90779 17.2381 4.43822 19.0938L2.35488 21.1771C2.21034 21.3236 2.11243 21.5096 2.0735 21.7117C2.03457 21.9138 2.05636 22.1228 2.13613 22.3125C2.22265 22.5 2.36291 22.6575 2.5391 22.765C2.71529 22.8726 2.91947 22.9254 3.12571 22.9167H12.5007C15.2634 22.9167 17.9129 21.8192 19.8664 19.8657C21.8199 17.9122 22.9174 15.2627 22.9174 12.5C22.9174 9.73737 21.8199 7.08785 19.8664 5.13434C17.9129 3.18084 15.2634 2.08337 12.5007 2.08337V2.08337ZM12.5007 20.8334H5.63613L6.60488 19.8646C6.79889 19.6695 6.90779 19.4054 6.90779 19.1302C6.90779 18.8551 6.79889 18.591 6.60488 18.3959C5.24091 17.0334 4.39152 15.2402 4.20143 13.3217C4.01135 11.4032 4.49232 9.47817 5.56241 7.87454C6.6325 6.27091 8.2255 5.08791 10.07 4.5271C11.9145 3.96628 13.8964 4.06234 15.678 4.79891C17.4596 5.53548 18.9308 6.86699 19.8408 8.56659C20.7507 10.2662 21.0433 12.2287 20.6686 14.1198C20.2938 16.0109 19.275 17.7136 17.7857 18.9378C16.2963 20.162 14.4286 20.8319 12.5007 20.8334V20.8334Z" fill="#232627"/>
</svg>
