<svg width="20" height="20" viewBox="0 0 20 20" fill="none" xmlns="http://www.w3.org/2000/svg">
<path d="M9.99935 12.4791C9.88824 12.4791 9.78074 12.4583 9.67685 12.4166C9.5724 12.375 9.48546 12.3194 9.41602 12.25L5.58268 8.41665C5.4299 8.26387 5.35352 8.06942 5.35352 7.83331C5.35352 7.5972 5.4299 7.40276 5.58268 7.24998C5.73546 7.0972 5.9299 7.02081 6.16602 7.02081C6.40213 7.02081 6.59657 7.0972 6.74935 7.24998L9.99935 10.5L13.2493 7.24998C13.4021 7.0972 13.5966 7.02081 13.8327 7.02081C14.0688 7.02081 14.2632 7.0972 14.416 7.24998C14.5688 7.40276 14.6452 7.5972 14.6452 7.83331C14.6452 8.06942 14.5688 8.26387 14.416 8.41665L10.5827 12.25C10.4993 12.3333 10.4091 12.3922 10.3118 12.4266C10.2146 12.4616 10.1105 12.4791 9.99935 12.4791V12.4791Z" fill="#232627"/>
</svg>
