<svg width="20" height="20" viewBox="0 0 20 20" fill="none" xmlns="http://www.w3.org/2000/svg">
<path d="M9.06315 16.0833L3.56315 10.5833C3.47982 10.5 3.42065 10.4097 3.38565 10.3125C3.35121 10.2153 3.33398 10.1111 3.33398 9.99999C3.33398 9.88888 3.35121 9.78471 3.38565 9.68749C3.42065 9.59027 3.47982 9.49999 3.56315 9.41665L9.06315 3.91665C9.21593 3.76388 9.40676 3.68388 9.63565 3.67665C9.8651 3.66999 10.0632 3.74999 10.2298 3.91665C10.3965 4.06943 10.4834 4.26027 10.4907 4.48915C10.4973 4.7186 10.4173 4.91665 10.2507 5.08332L6.16732 9.16665H15.4798C15.7159 9.16665 15.914 9.24638 16.074 9.40582C16.2334 9.56582 16.3132 9.76388 16.3132 9.99999C16.3132 10.2361 16.2334 10.4339 16.074 10.5933C15.914 10.7533 15.7159 10.8333 15.4798 10.8333H6.16732L10.2507 14.9167C10.4034 15.0694 10.4834 15.2639 10.4907 15.5C10.4973 15.7361 10.4173 15.9305 10.2507 16.0833C10.0979 16.25 9.90343 16.3333 9.66732 16.3333C9.43121 16.3333 9.22982 16.25 9.06315 16.0833V16.0833Z" fill="#232627"/>
</svg>
