<svg width="25" height="25" viewBox="0 0 25 25" fill="none" xmlns="http://www.w3.org/2000/svg">
<path d="M21.6284 13.0298C22.0386 12.4878 22.2656 11.8237 22.2656 11.1328C22.2656 10.0366 21.6528 8.99904 20.6665 8.42043C20.4126 8.27149 20.1235 8.1931 19.8291 8.19338H13.9746L14.1211 5.19289C14.1553 4.46779 13.8989 3.77931 13.4009 3.25441C13.1565 2.99569 12.8616 2.78984 12.5345 2.64959C12.2073 2.50934 11.8549 2.43766 11.499 2.43898C10.2295 2.43898 9.10645 3.29348 8.76953 4.51662L6.67236 12.1094H3.51562C3.0835 12.1094 2.73438 12.4585 2.73438 12.8906V21.7774C2.73438 22.2095 3.0835 22.5586 3.51562 22.5586H18.1958C18.4204 22.5586 18.6401 22.5147 18.8428 22.4268C20.0049 21.9312 20.7544 20.7959 20.7544 19.5362C20.7544 19.2285 20.7104 18.9258 20.6226 18.6328C21.0327 18.0908 21.2598 17.4268 21.2598 16.7359C21.2598 16.4282 21.2158 16.1255 21.1279 15.8325C21.5381 15.2905 21.7651 14.6265 21.7651 13.9356C21.7603 13.6279 21.7163 13.3228 21.6284 13.0298V13.0298ZM4.49219 20.8008V13.8672H6.46973V20.8008H4.49219ZM20.0293 12.1826L19.4946 12.6465L19.834 13.2666C19.9458 13.4709 20.0038 13.7003 20.0024 13.9331C20.0024 14.336 19.8267 14.7193 19.5239 14.9829L18.9893 15.4468L19.3286 16.0669C19.4404 16.2712 19.4984 16.5006 19.4971 16.7334C19.4971 17.1362 19.3213 17.5195 19.0186 17.7832L18.4839 18.2471L18.8232 18.8672C18.935 19.0715 18.993 19.3008 18.9917 19.5337C18.9917 20.0806 18.6694 20.5737 18.1714 20.7984H8.03223V13.7891L10.4614 4.98781C10.5241 4.76223 10.6585 4.56321 10.8444 4.42091C11.0304 4.27861 11.2576 4.20079 11.4917 4.19924C11.6772 4.19924 11.8604 4.25295 12.0068 4.36281C12.2485 4.54347 12.3779 4.81691 12.3633 5.10744L12.1289 9.95119H19.8047C20.2393 10.2173 20.5078 10.6665 20.5078 11.1328C20.5078 11.5357 20.332 11.9165 20.0293 12.1826Z" fill="#232627"/>
</svg>
