<svg width="25" height="25" viewBox="0 0 25 25" fill="none" xmlns="http://www.w3.org/2000/svg">
<path d="M22.8125 19.1015L22.002 16.084L18.7695 4.00387C18.662 3.60375 18.3999 3.26272 18.041 3.05578C17.6821 2.84884 17.2556 2.79294 16.8555 2.90036L13.8379 3.71091L13.7402 3.7402C13.5947 3.54926 13.4071 3.39442 13.192 3.28773C12.9769 3.18103 12.7401 3.12533 12.5 3.12497H9.375C9.10009 3.12571 8.83038 3.19988 8.59375 3.33981C8.35712 3.19988 8.08741 3.12571 7.8125 3.12497H4.6875C4.2731 3.12497 3.87567 3.28959 3.58265 3.58261C3.28962 3.87564 3.125 4.27307 3.125 4.68747V20.3125C3.125 20.7269 3.28962 21.1243 3.58265 21.4173C3.87567 21.7103 4.2731 21.875 4.6875 21.875H7.8125C8.08741 21.8742 8.35712 21.8001 8.59375 21.6601C8.83038 21.8001 9.10009 21.8742 9.375 21.875H12.5C12.9144 21.875 13.3118 21.7103 13.6049 21.4173C13.8979 21.1243 14.0625 20.7269 14.0625 20.3125V10.5859L15.9668 17.6953L16.7773 20.7129C16.8658 21.0466 17.0623 21.3416 17.3362 21.5518C17.61 21.7621 17.9458 21.8757 18.291 21.875C18.4258 21.8726 18.56 21.8563 18.6914 21.8261L21.709 21.0156C21.9075 20.9623 22.0934 20.8701 22.2561 20.7444C22.4187 20.6186 22.5547 20.4619 22.6562 20.2832C22.7604 20.1068 22.8279 19.9113 22.8547 19.7083C22.8816 19.5052 22.8672 19.2989 22.8125 19.1015V19.1015ZM15.2539 8.99411L18.2715 8.18356L20.293 15.7324L17.2754 16.5429L15.2539 8.99411ZM17.2559 4.41403L17.8711 6.66989L14.8535 7.48044L14.2383 5.22458L17.2559 4.41403ZM12.5 4.68747V16.4062H9.375V4.68747H12.5ZM7.8125 4.68747V7.03122H4.6875V4.68747H7.8125ZM4.6875 20.3125V8.59372H7.8125V20.3125H4.6875ZM12.5 20.3125H9.375V17.9687H12.5V20.3125ZM21.3086 19.5019L18.291 20.3125L17.6758 18.0468L20.7031 17.2363L21.3086 19.5019V19.5019Z" fill="#6741FF"/>
</svg>
