<svg width="25" height="25" viewBox="0 0 25 25" fill="none" xmlns="http://www.w3.org/2000/svg">
<path d="M12.4997 2.08325C11.1318 2.08325 9.77726 2.35269 8.51345 2.87617C7.24964 3.39966 6.10132 4.16695 5.13404 5.13422C3.18054 7.08773 2.08307 9.73725 2.08307 12.4999C2.07397 14.9053 2.90681 17.238 4.43724 19.0937L2.35391 21.177C2.20937 21.3235 2.11145 21.5095 2.07252 21.7116C2.03359 21.9136 2.05538 22.1227 2.13516 22.3124C2.22167 22.4998 2.36193 22.6573 2.53812 22.7649C2.71431 22.8725 2.91849 22.9253 3.12474 22.9166H12.4997C15.2624 22.9166 17.9119 21.8191 19.8654 19.8656C21.8189 17.9121 22.9164 15.2626 22.9164 12.4999C22.9164 9.73725 21.8189 7.08773 19.8654 5.13422C17.9119 3.18072 15.2624 2.08325 12.4997 2.08325V2.08325ZM12.4997 20.8333H5.63515L6.60391 19.8645C6.79792 19.6693 6.90681 19.4053 6.90681 19.1301C6.90681 18.8549 6.79792 18.5909 6.60391 18.3958C5.23993 17.0333 4.39054 15.2401 4.20046 13.3216C4.01037 11.4031 4.49135 9.47805 5.56143 7.87442C6.63152 6.27079 8.22452 5.08779 10.069 4.52697C11.9135 3.96616 13.8954 4.06222 15.677 4.79879C17.4587 5.53536 18.9298 6.86687 19.8398 8.56647C20.7498 10.2661 21.0423 12.2286 20.6676 14.1197C20.2928 16.0108 19.274 17.7135 17.7847 18.9377C16.2953 20.1618 14.4276 20.8317 12.4997 20.8333V20.8333Z" fill="#6741FF"/>
</svg>
