<svg width="25" height="25" viewBox="0 0 25 25" fill="none" xmlns="http://www.w3.org/2000/svg">
<path d="M3.125 8.33325V19.7916C3.125 22.0843 4.99375 22.9166 6.25 22.9166H21.875V20.8333H6.2625C5.78125 20.8208 5.20833 20.6312 5.20833 19.7916C5.20833 18.952 5.78125 18.7624 6.2625 18.7499H21.875V4.16659C21.875 3.01763 20.9406 2.08325 19.7917 2.08325H6.25C4.99375 2.08325 3.125 2.91554 3.125 5.20825V8.33325ZM6.25 4.16659H19.7917V16.6666H5.20833V5.20825C5.20833 4.36867 5.78125 4.17909 6.25 4.16659Z" fill="#6741FF"/>
<path d="M12.4971 14.5833L15.9867 11.1573C16.2018 10.9503 16.373 10.7021 16.4899 10.4274C16.6068 10.1528 16.6671 9.85733 16.6671 9.55882C16.6671 9.2603 16.6068 8.96486 16.4899 8.6902C16.373 8.41553 16.2018 8.1673 15.9867 7.96038C15.5529 7.53226 14.968 7.29221 14.3586 7.29221C13.7491 7.29221 13.1642 7.53226 12.7304 7.96038L12.4971 8.18746L12.2638 7.95934C11.8302 7.53128 11.2454 7.29126 10.6362 7.29126C10.0269 7.29126 9.44213 7.53128 9.00855 7.95934C8.7934 8.16626 8.62223 8.41449 8.50531 8.68916C8.38839 8.96382 8.32813 9.25926 8.32812 9.55777C8.32813 9.85629 8.38839 10.1517 8.50531 10.4264C8.62223 10.7011 8.7934 10.9493 9.00855 11.1562L12.4971 14.5833Z" fill="#6741FF"/>
</svg>
