<svg width="20" height="20" viewBox="0 0 20 20" fill="none" xmlns="http://www.w3.org/2000/svg">
<path d="M10 17.8125C9.83909 17.8117 9.68082 17.7715 9.53907 17.6953C9.20313 17.5 1.25 12.9844 1.25 7.1875C1.24892 6.17145 1.55742 5.17917 2.13441 4.34283C2.71141 3.5065 3.5295 2.86579 4.47975 2.50606C5.43 2.14632 6.46729 2.08463 7.45348 2.32919C8.43967 2.57375 9.32794 3.11296 10 3.875C10.6721 3.11296 11.5603 2.57375 12.5465 2.32919C13.5327 2.08463 14.57 2.14632 15.5203 2.50606C16.4705 2.86579 17.2886 3.5065 17.8656 4.34283C18.4426 5.17917 18.7511 6.17145 18.75 7.1875C18.75 12.9844 10.7969 17.5 10.4609 17.6953C10.3192 17.7715 10.1609 17.8117 10 17.8125V17.8125ZM6.25 4.06251C5.4212 4.06251 4.62635 4.39175 4.04029 4.9778C3.45424 5.56385 3.125 6.3587 3.125 7.1875C3.125 11.1875 8.39063 14.7813 10 15.7813C11.6094 14.7813 16.875 11.1875 16.875 7.1875C16.8743 6.46575 16.6238 5.76649 16.166 5.2085C15.7082 4.65051 15.0713 4.26818 14.3636 4.12646C13.6559 3.98473 12.921 4.09235 12.2836 4.43102C11.6463 4.7697 11.1458 5.31856 10.8672 5.98438C10.7966 6.15633 10.6764 6.3034 10.522 6.4069C10.3676 6.5104 10.1859 6.56566 10 6.56566C9.81411 6.56566 9.63242 6.5104 9.47801 6.4069C9.3236 6.3034 9.20345 6.15633 9.13282 5.98438C8.89632 5.41478 8.49618 4.92814 7.98302 4.58603C7.46985 4.24393 6.86674 4.06173 6.25 4.06251V4.06251Z" fill="#6741FF"/>
</svg>
