<svg width="20" height="20" viewBox="0 0 20 20" fill="none" xmlns="http://www.w3.org/2000/svg">
<path d="M18.4375 7.1875C18.4375 9.57813 17.0547 12.0312 14.3281 14.4844C13.09 15.5974 11.7419 16.5816 10.3047 17.4219C10.2113 17.4732 10.1065 17.5001 10 17.5001C9.89348 17.5001 9.78868 17.4732 9.69531 17.4219C9.35937 17.2344 1.5625 12.8047 1.5625 7.1875C1.5625 6.20368 1.87205 5.24479 2.4473 4.44667C3.02255 3.64855 3.83434 3.05166 4.76768 2.74055C5.70102 2.42943 6.70859 2.41987 7.64766 2.71322C8.58673 3.00656 9.40971 3.58794 10 4.375C10.5903 3.58794 11.4133 3.00656 12.3523 2.71322C13.2914 2.41987 14.299 2.42943 15.2323 2.74055C16.1657 3.05166 16.9774 3.64855 17.5527 4.44667C18.1279 5.24479 18.4375 6.20368 18.4375 7.1875Z" fill="#6741FF"/>
</svg>
