<svg width="20" height="20" viewBox="0 0 20 20" fill="none" xmlns="http://www.w3.org/2000/svg">
<path d="M10 1.875C8.39303 1.875 6.82214 2.35152 5.486 3.24431C4.14985 4.1371 3.10844 5.40605 2.49348 6.8907C1.87852 8.37535 1.71762 10.009 2.03112 11.5851C2.34463 13.1612 3.11846 14.6089 4.25476 15.7452C5.39106 16.8815 6.8388 17.6554 8.41489 17.9689C9.99099 18.2824 11.6247 18.1215 13.1093 17.5065C14.594 16.8916 15.8629 15.8502 16.7557 14.514C17.6485 13.1779 18.125 11.607 18.125 10C18.1229 7.84575 17.2662 5.78033 15.743 4.25704C14.2197 2.73376 12.1543 1.87707 10 1.875V1.875ZM10 16.875C8.64026 16.875 7.31105 16.4718 6.18046 15.7164C5.04987 14.9609 4.16868 13.8872 3.64833 12.6309C3.12798 11.3747 2.99183 9.99237 3.2571 8.65875C3.52238 7.32513 4.17716 6.10013 5.13864 5.13864C6.10013 4.17715 7.32514 3.52237 8.65876 3.2571C9.99238 2.99183 11.3747 3.12798 12.631 3.64833C13.8872 4.16868 14.9609 5.04987 15.7164 6.18045C16.4718 7.31104 16.875 8.64025 16.875 10C16.8729 11.8227 16.1479 13.5702 14.8591 14.8591C13.5702 16.1479 11.8227 16.8729 10 16.875V16.875ZM10.9375 14.0625C10.9375 14.2479 10.8825 14.4292 10.7795 14.5833C10.6765 14.7375 10.5301 14.8577 10.3588 14.9286C10.1875 14.9996 9.99896 15.0182 9.81711 14.982C9.63525 14.9458 9.4682 14.8565 9.33709 14.7254C9.20598 14.5943 9.11669 14.4273 9.08052 14.2454C9.04434 14.0635 9.06291 13.875 9.13387 13.7037C9.20482 13.5324 9.32499 13.386 9.47916 13.283C9.63333 13.18 9.81458 13.125 10 13.125C10.2486 13.125 10.4871 13.2238 10.6629 13.3996C10.8387 13.5754 10.9375 13.8139 10.9375 14.0625ZM12.8125 8.4375C12.8125 9.0748 12.5961 9.69321 12.1986 10.1914C11.8012 10.6896 11.2464 11.0381 10.625 11.1797V11.25C10.625 11.4158 10.5592 11.5747 10.4419 11.6919C10.3247 11.8092 10.1658 11.875 10 11.875C9.83424 11.875 9.67527 11.8092 9.55806 11.6919C9.44085 11.5747 9.375 11.4158 9.375 11.25V10.625C9.375 10.4592 9.44085 10.3003 9.55806 10.1831C9.67527 10.0658 9.83424 10 10 10C10.309 10 10.6111 9.90836 10.8681 9.73667C11.125 9.56498 11.3253 9.32095 11.4436 9.03544C11.5618 8.74993 11.5928 8.43577 11.5325 8.13267C11.4722 7.82958 11.3234 7.55117 11.1049 7.33265C10.8863 7.11413 10.6079 6.96531 10.3048 6.90502C10.0017 6.84473 9.68757 6.87568 9.40206 6.99394C9.11655 7.1122 8.87252 7.31247 8.70083 7.56942C8.52914 7.82637 8.4375 8.12847 8.4375 8.4375C8.4375 8.60326 8.37166 8.76223 8.25445 8.87944C8.13723 8.99665 7.97826 9.0625 7.8125 9.0625C7.64674 9.0625 7.48777 8.99665 7.37056 8.87944C7.25335 8.76223 7.1875 8.60326 7.1875 8.4375C7.1875 7.69158 7.48382 6.97621 8.01127 6.44876C8.53871 5.92132 9.25408 5.625 10 5.625C10.7459 5.625 11.4613 5.92132 11.9887 6.44876C12.5162 6.97621 12.8125 7.69158 12.8125 8.4375V8.4375Z" fill="#737373"/>
</svg>
