<svg width="25" height="25" viewBox="0 0 25 25" fill="none" xmlns="http://www.w3.org/2000/svg">
<path d="M12.5 1.95312C10.414 1.95313 8.3749 2.57169 6.64047 3.73059C4.90605 4.8895 3.55423 6.5367 2.75596 8.46389C1.95769 10.3911 1.74883 12.5117 2.15578 14.5576C2.56274 16.6035 3.56723 18.4828 5.04224 19.9578C6.51725 21.4328 8.39652 22.4373 10.4424 22.8442C12.4883 23.2512 14.6089 23.0423 16.5361 22.244C18.4633 21.4458 20.1105 20.094 21.2694 18.3595C22.4283 16.6251 23.0469 14.586 23.0469 12.5C23.0443 9.70359 21.9323 7.02245 19.9549 5.04509C17.9776 3.06773 15.2964 1.95571 12.5 1.95312ZM12.5 20.7031C10.8776 20.7031 9.29159 20.222 7.94259 19.3206C6.5936 18.4193 5.54218 17.1381 4.92131 15.6392C4.30043 14.1403 4.13798 12.4909 4.4545 10.8996C4.77102 9.3084 5.55229 7.84674 6.69952 6.69951C7.84675 5.55229 9.3084 4.77102 10.8997 4.4545C12.4909 4.13798 14.1403 4.30043 15.6392 4.9213C17.1381 5.54218 18.4193 6.59359 19.3207 7.94259C20.222 9.29158 20.7031 10.8776 20.7031 12.5C20.7005 14.6748 19.8355 16.7598 18.2976 18.2976C16.7598 19.8355 14.6748 20.7005 12.5 20.7031V20.7031ZM14.0625 17.1875C14.0625 17.4965 13.9709 17.7986 13.7992 18.0556C13.6275 18.3125 13.3835 18.5128 13.0979 18.6311C12.8124 18.7493 12.4983 18.7803 12.1952 18.72C11.8921 18.6597 11.6137 18.5109 11.3952 18.2924C11.1766 18.0738 11.0278 17.7954 10.9675 17.4923C10.9072 17.1892 10.9382 16.8751 11.0564 16.5896C11.1747 16.304 11.375 16.06 11.6319 15.8883C11.8889 15.7166 12.191 15.625 12.5 15.625C12.9144 15.625 13.3118 15.7896 13.6049 16.0826C13.8979 16.3757 14.0625 16.7731 14.0625 17.1875ZM16.4063 10.5469C16.4063 11.5829 15.9947 12.5764 15.2621 13.309C14.5296 14.0416 13.536 14.4531 12.5 14.4531C12.1892 14.4531 11.8911 14.3297 11.6714 14.1099C11.4516 13.8901 11.3281 13.5921 11.3281 13.2812C11.3281 12.9704 11.4516 12.6724 11.6714 12.4526C11.8911 12.2328 12.1892 12.1094 12.5 12.1094C12.809 12.1094 13.1111 12.0177 13.3681 11.846C13.625 11.6744 13.8253 11.4303 13.9436 11.1448C14.0618 10.8593 14.0928 10.5451 14.0325 10.242C13.9722 9.93895 13.8234 9.66054 13.6049 9.44202C13.3863 9.2235 13.1079 9.07469 12.8048 9.0144C12.5017 8.95411 12.1876 8.98505 11.9021 9.10331C11.6166 9.22158 11.3725 9.42184 11.2008 9.6788C11.0291 9.93575 10.9375 10.2378 10.9375 10.5469C10.9375 10.8577 10.814 11.1557 10.5943 11.3755C10.3745 11.5953 10.0764 11.7188 9.76563 11.7188C9.45483 11.7188 9.15676 11.5953 8.93699 11.3755C8.71722 11.1557 8.59375 10.8577 8.59375 10.5469C8.59375 9.51087 9.0053 8.5173 9.73787 7.78474C10.4704 7.05218 11.464 6.64062 12.5 6.64062C13.536 6.64062 14.5296 7.05218 15.2621 7.78474C15.9947 8.5173 16.4063 9.51087 16.4063 10.5469V10.5469Z" fill="#6741FF"/>
</svg>
