<svg width="28" height="28" viewBox="0 0 28 28" fill="none" xmlns="http://www.w3.org/2000/svg">
<path d="M8.34167 24.6166C8.05001 24.325 7.90417 23.9796 7.90417 23.5806C7.90417 23.1824 8.05001 22.8375 8.34167 22.5458L16.8875 14L8.31251 5.42496C8.04029 5.15274 7.90417 4.81246 7.90417 4.40413C7.90417 3.99579 8.05001 3.64579 8.34167 3.35413C8.63334 3.06246 8.97867 2.91663 9.37767 2.91663C9.7759 2.91663 10.1208 3.06246 10.4125 3.35413L20.2125 13.1833C20.3292 13.3 20.412 13.4263 20.461 13.5625C20.5092 13.6986 20.5333 13.8444 20.5333 14C20.5333 14.1555 20.5092 14.3013 20.461 14.4375C20.412 14.5736 20.3292 14.7 20.2125 14.8166L10.3833 24.6458C10.1111 24.918 9.7759 25.0541 9.37767 25.0541C8.97867 25.0541 8.63334 24.9083 8.34167 24.6166Z" fill="#434343"/>
</svg>
