<svg width="20" height="20" viewBox="0 0 20 20" fill="none" xmlns="http://www.w3.org/2000/svg">
<path d="M4.5841 12.5C5.31298 12.4978 6.01428 12.2211 6.54826 11.725L11.7649 14.7058C11.5901 15.3888 11.6672 16.1119 11.982 16.7428C12.2968 17.3736 12.8282 17.87 13.4791 18.141C14.1299 18.412 14.8566 18.4396 15.5261 18.2186C16.1956 17.9976 16.7631 17.5429 17.1247 16.9377C17.4863 16.3325 17.6179 15.6173 17.4953 14.923C17.3728 14.2288 17.0042 13.6019 16.4572 13.1571C15.9102 12.7123 15.2213 12.4795 14.5166 12.5011C13.8119 12.5228 13.1386 12.7975 12.6199 13.275L7.40326 10.2942C7.45826 10.0858 7.48826 9.87 7.49326 9.65417L12.6183 6.725C13.1117 7.17398 13.7446 7.43959 14.4107 7.47726C15.0768 7.51494 15.7356 7.3224 16.2766 6.93193C16.8175 6.54146 17.2078 5.97684 17.3818 5.33277C17.5558 4.6887 17.503 4.00438 17.2323 3.39461C16.9616 2.78484 16.4894 2.28673 15.8949 1.98383C15.3005 1.68093 14.62 1.59168 13.9675 1.73105C13.3151 1.87042 12.7304 2.22993 12.3116 2.74927C11.8928 3.26861 11.6654 3.91618 11.6674 4.58333C11.6708 4.82333 11.7033 5.0625 11.7649 5.29417L7.02826 8C6.75358 7.57505 6.37307 7.22887 5.92411 6.99548C5.47516 6.76208 4.97321 6.6495 4.46758 6.66879C3.96195 6.68808 3.47003 6.83859 3.04017 7.10551C2.6103 7.37244 2.25727 7.7466 2.01577 8.19125C1.77426 8.63589 1.65258 9.13571 1.66269 9.64161C1.6728 10.1475 1.81435 10.6421 2.07342 11.0767C2.3325 11.5113 2.7002 11.8711 3.14038 12.1207C3.58057 12.3702 4.0781 12.5009 4.5841 12.5V12.5Z" fill="#232627"/>
</svg>
