<svg width="20" height="20" viewBox="0 0 20 20" fill="none" xmlns="http://www.w3.org/2000/svg">
<path d="M5.58366 12.2499C5.43088 12.0971 5.35449 11.9027 5.35449 11.6666C5.35449 11.4305 5.43088 11.236 5.58366 11.0833L9.41699 7.24992C9.50033 7.16658 9.5906 7.10742 9.68783 7.07242C9.78505 7.03797 9.88921 7.02075 10.0003 7.02075C10.1114 7.02075 10.2192 7.04159 10.3237 7.08325C10.4275 7.12492 10.5142 7.18047 10.5837 7.24992L14.417 11.0833C14.5698 11.236 14.6462 11.4305 14.6462 11.6666C14.6462 11.9027 14.5698 12.0971 14.417 12.2499C14.2642 12.4027 14.0698 12.4791 13.8337 12.4791C13.5975 12.4791 13.4031 12.4027 13.2503 12.2499L10.0003 8.99992L6.75033 12.2499C6.59755 12.4027 6.4031 12.4791 6.16699 12.4791C5.93088 12.4791 5.73644 12.4027 5.58366 12.2499V12.2499Z" fill="#F8F8F8"/>
</svg>
