<svg width="25" height="25" viewBox="0 0 25 25" fill="none" xmlns="http://www.w3.org/2000/svg">
<path d="M12.4993 16.6667C13.0519 16.6667 13.5818 16.8862 13.9725 17.2769C14.3632 17.6676 14.5827 18.1975 14.5827 18.7501C14.5827 19.3026 14.3632 19.8325 13.9725 20.2232C13.5818 20.6139 13.0519 20.8334 12.4993 20.8334C11.9468 20.8334 11.4169 20.6139 11.0262 20.2232C10.6355 19.8325 10.416 19.3026 10.416 18.7501C10.416 18.1975 10.6355 17.6676 11.0262 17.2769C11.4169 16.8862 11.9468 16.6667 12.4993 16.6667ZM12.4993 10.4167C13.0519 10.4167 13.5818 10.6362 13.9725 11.0269C14.3632 11.4176 14.5827 11.9475 14.5827 12.5001C14.5827 13.0526 14.3632 13.5825 13.9725 13.9732C13.5818 14.3639 13.0519 14.5834 12.4993 14.5834C11.9468 14.5834 11.4169 14.3639 11.0262 13.9732C10.6355 13.5825 10.416 13.0526 10.416 12.5001C10.416 11.9475 10.6355 11.4176 11.0262 11.0269C11.4169 10.6362 11.9468 10.4167 12.4993 10.4167M12.4993 4.16675C13.0519 4.16675 13.5818 4.38624 13.9725 4.77694C14.3632 5.16764 14.5827 5.69755 14.5827 6.25008C14.5827 6.80262 14.3632 7.33252 13.9725 7.72322C13.5818 8.11392 13.0519 8.33341 12.4993 8.33341C11.9468 8.33341 11.4169 8.11392 11.0262 7.72322C10.6355 7.33252 10.416 6.80262 10.416 6.25008C10.416 5.69755 10.6355 5.16764 11.0262 4.77694C11.4169 4.38624 11.9468 4.16675 12.4993 4.16675Z" fill="#232627"/>
</svg>
